<svg xmlns="http://www.w3.org/2000/svg" xmlns:xlink="http://www.w3.org/1999/xlink" width="215" height="179.595" viewBox="0 0 215 179.595">
  <defs>
    <clipPath id="clip-path">
      <rect id="Rectangle_23" data-name="Rectangle 23" width="215" height="179.595" fill="none"/>
    </clipPath>
  </defs>
  <g id="Group_44" data-name="Group 44" transform="translate(0 0)">
    <g id="Group_43" data-name="Group 43" transform="translate(0 0)" clip-path="url(#clip-path)">
      <path id="Path_21" data-name="Path 21" d="M132.545,130.419v38.432a7.14,7.14,0,0,1-7.139,7.139H8.141A7.14,7.14,0,0,1,1,168.851V8.141A7.141,7.141,0,0,1,8.141,1H97.805l34.74,40.846" transform="translate(1.301 1.302)" fill="none" stroke="#fff" stroke-linecap="round" stroke-linejoin="round" stroke-width="2"/>
      <line id="Line_2" data-name="Line 2" y2="34.307" transform="translate(133.846 43.566)" fill="none" stroke="#fff" stroke-linecap="round" stroke-linejoin="round" stroke-width="2"/>
      <path id="Path_22" data-name="Path 22" d="M76.173,41.809H50.015a7.061,7.061,0,0,1-7.061-7.061V1" transform="translate(55.902 1.302)" fill="none" stroke="#fff" stroke-linecap="round" stroke-linejoin="round" stroke-width="2"/>
      <line id="Line_3" data-name="Line 3" x2="56.592" transform="translate(22.983 26.844)" fill="none" stroke="#fff" stroke-linecap="round" stroke-linejoin="round" stroke-width="2"/>
      <line id="Line_4" data-name="Line 4" x2="56.592" transform="translate(22.983 44.94)" fill="none" stroke="#fff" stroke-linecap="round" stroke-linejoin="round" stroke-width="2"/>
      <line id="Line_5" data-name="Line 5" x2="90.81" transform="translate(22.983 63.036)" fill="none" stroke="#fff" stroke-linecap="round" stroke-linejoin="round" stroke-width="2"/>
      <line id="Line_6" data-name="Line 6" x2="90.81" transform="translate(22.983 81.133)" fill="none" stroke="#fff" stroke-linecap="round" stroke-linejoin="round" stroke-width="2"/>
      <line id="Line_7" data-name="Line 7" x2="90.81" transform="translate(22.983 99.229)" fill="none" stroke="#fff" stroke-linecap="round" stroke-linejoin="round" stroke-width="2"/>
      <line id="Line_8" data-name="Line 8" x2="90.81" transform="translate(22.983 154.176)" fill="none" stroke="#fff" stroke-linecap="round" stroke-linejoin="round" stroke-width="2"/>
      <rect id="Rectangle_19" data-name="Rectangle 19" width="12.833" height="12.398" transform="translate(27.242 141.778)" fill="none" stroke="#fff" stroke-linecap="round" stroke-linejoin="round" stroke-width="2"/>
      <rect id="Rectangle_20" data-name="Rectangle 20" width="12.833" height="18.918" transform="translate(49.124 135.258)" fill="none" stroke="#fff" stroke-linecap="round" stroke-linejoin="round" stroke-width="2"/>
      <rect id="Rectangle_21" data-name="Rectangle 21" width="12.833" height="31.649" transform="translate(72.334 122.526)" fill="none" stroke="#fff" stroke-linecap="round" stroke-linejoin="round" stroke-width="2"/>
      <rect id="Rectangle_22" data-name="Rectangle 22" width="12.833" height="37.838" transform="translate(96.699 116.338)" fill="none" stroke="#fff" stroke-linecap="round" stroke-linejoin="round" stroke-width="2"/>
      <path id="Path_23" data-name="Path 23" d="M142.048,70.043A43.88,43.88,0,1,1,98.166,26.164,43.881,43.881,0,0,1,142.048,70.043Z" transform="translate(70.651 34.052)" fill="none" stroke="#fff" stroke-linecap="round" stroke-linejoin="round" stroke-width="2"/>
      <line id="Line_9" data-name="Line 9" x2="35.645" transform="translate(150.996 82.175)" fill="none" stroke="#fff" stroke-linecap="round" stroke-linejoin="round" stroke-width="2"/>
      <line id="Line_10" data-name="Line 10" x2="35.645" transform="translate(150.996 91.032)" fill="none" stroke="#fff" stroke-linecap="round" stroke-linejoin="round" stroke-width="2"/>
      <path id="Path_24" data-name="Path 24" d="M77.287,35.705c8.046,0,14.575,5.461,14.575,13.512S80.09,66.8,66.521,59.891" transform="translate(86.573 46.469)" fill="none" stroke="#fff" stroke-linecap="round" stroke-linejoin="round" stroke-width="2"/>
      <line id="Line_11" data-name="Line 11" x2="27.139" y2="23.307" transform="translate(153.095 106.361)" fill="none" stroke="#fff" stroke-linecap="round" stroke-linejoin="round" stroke-width="2"/>
    </g>
  </g>
</svg>
