<svg xmlns="http://www.w3.org/2000/svg" xmlns:xlink="http://www.w3.org/1999/xlink" width="176.685" height="181.085" viewBox="0 0 176.685 181.085">
  <defs>
    <clipPath id="clip-path">
      <rect id="Rectangle_24" data-name="Rectangle 24" width="176.685" height="181.086" fill="none"/>
    </clipPath>
  </defs>
  <g id="Group_46" data-name="Group 46" transform="translate(0 0)">
    <g id="Group_45" data-name="Group 45" transform="translate(0 0)" clip-path="url(#clip-path)">
      <path id="Path_25" data-name="Path 25" d="M107.825,45.536A44.535,44.535,0,1,1,63.289,1,44.536,44.536,0,0,1,107.825,45.536Z" transform="translate(25.052 1.335)" fill="none" stroke="#fff" stroke-linecap="round" stroke-linejoin="round" stroke-width="2"/>
      <line id="Line_12" data-name="Line 12" x2="36.176" transform="translate(70.254 24.622)" fill="none" stroke="#fff" stroke-linecap="round" stroke-linejoin="round" stroke-width="2"/>
      <line id="Line_13" data-name="Line 13" x2="36.176" transform="translate(70.254 33.612)" fill="none" stroke="#fff" stroke-linecap="round" stroke-linejoin="round" stroke-width="2"/>
      <path id="Path_26" data-name="Path 26" d="M41.913,10.542c8.168,0,14.792,5.543,14.792,13.713S44.761,42.1,30.989,35.089" transform="translate(41.394 14.081)" fill="none" stroke="#fff" stroke-linecap="round" stroke-linejoin="round" stroke-width="2"/>
      <line id="Line_14" data-name="Line 14" x2="27.543" y2="23.654" transform="translate(72.384 49.169)" fill="none" stroke="#fff" stroke-linecap="round" stroke-linejoin="round" stroke-width="2"/>
      <path id="Path_27" data-name="Path 27" d="M6.244,88.044V49.88H153.762V88.044" transform="translate(8.34 66.628)" fill="none" stroke="#fff" stroke-linecap="round" stroke-linejoin="round" stroke-width="2"/>
      <line id="Line_15" data-name="Line 15" y2="59.821" transform="translate(88.342 91.406)" fill="none" stroke="#fff" stroke-linecap="round" stroke-linejoin="round" stroke-width="2"/>
      <path id="Path_28" data-name="Path 28" d="M25.5,78.289A12.248,12.248,0,1,1,13.246,66.04,12.249,12.249,0,0,1,25.5,78.289Z" transform="translate(1.336 88.214)" fill="none" stroke="#fff" stroke-linecap="round" stroke-linejoin="round" stroke-width="2"/>
      <path id="Path_29" data-name="Path 29" d="M57.073,78.289A12.248,12.248,0,1,1,44.824,66.04,12.249,12.249,0,0,1,57.073,78.289Z" transform="translate(43.517 88.214)" fill="none" stroke="#fff" stroke-linecap="round" stroke-linejoin="round" stroke-width="2"/>
      <path id="Path_30" data-name="Path 30" d="M88.651,78.289A12.248,12.248,0,1,1,76.4,66.04,12.249,12.249,0,0,1,88.651,78.289Z" transform="translate(85.698 88.214)" fill="none" stroke="#fff" stroke-linecap="round" stroke-linejoin="round" stroke-width="2"/>
    </g>
  </g>
</svg>
