<svg id="Group_51" data-name="Group 51" xmlns="http://www.w3.org/2000/svg" xmlns:xlink="http://www.w3.org/1999/xlink" width="179.526" height="179.526" viewBox="0 0 179.526 179.526">
  <defs>
    <clipPath id="clip-path">
      <rect id="Rectangle_27" data-name="Rectangle 27" width="179.526" height="179.526" fill="none"/>
    </clipPath>
  </defs>
  <g id="Group_50" data-name="Group 50" transform="translate(0 0)" clip-path="url(#clip-path)">
    <path id="Path_39" data-name="Path 39" d="M122,67.035A54.961,54.961,0,1,1,67.033,12.072,54.962,54.962,0,0,1,122,67.035Z" transform="translate(22.729 22.727)" fill="none" stroke="#fff" stroke-linecap="round" stroke-linejoin="round" stroke-width="2"/>
    <line id="Line_34" data-name="Line 34" x2="44.646" transform="translate(67.44 62.306)" fill="none" stroke="#fff" stroke-linecap="round" stroke-linejoin="round" stroke-width="2"/>
    <line id="Line_35" data-name="Line 35" x2="44.646" transform="translate(67.44 73.4)" fill="none" stroke="#fff" stroke-linecap="round" stroke-linejoin="round" stroke-width="2"/>
    <path id="Path_40" data-name="Path 40" d="M37.789,21.614c10.08,0,18.256,6.84,18.256,16.924S41.3,60.564,24.307,51.907" transform="translate(45.761 40.691)" fill="none" stroke="#fff" stroke-linecap="round" stroke-linejoin="round" stroke-width="2"/>
    <line id="Line_36" data-name="Line 36" x2="33.992" y2="29.192" transform="translate(70.068 92.6)" fill="none" stroke="#fff" stroke-linecap="round" stroke-linejoin="round" stroke-width="2"/>
    <path id="Path_41" data-name="Path 41" d="M8.293,122.78A86.9,86.9,0,0,1,149.316,26.446" transform="translate(1.883 1.882)" fill="none" stroke="#fff" stroke-linecap="round" stroke-linejoin="round" stroke-width="2"/>
    <path id="Path_42" data-name="Path 42" d="M147.251,16.513A86.894,86.894,0,0,1,9.828,120.111" transform="translate(18.502 31.088)" fill="none" stroke="#fff" stroke-linecap="round" stroke-linejoin="round" stroke-width="2"/>
    <path id="Path_43" data-name="Path 43" d="M67.067,3.328V24.443H45.952" transform="translate(86.51 6.266)" fill="none" stroke="#fff" stroke-linecap="round" stroke-linejoin="round" stroke-width="2"/>
    <path id="Path_44" data-name="Path 44" d="M8.4,72.136V51.021H29.512" transform="translate(15.808 96.052)" fill="none" stroke="#fff" stroke-linecap="round" stroke-linejoin="round" stroke-width="2"/>
  </g>
</svg>
