<svg xmlns="http://www.w3.org/2000/svg" width="200" height="124.288" viewBox="0 0 200 124.288">
  <g id="Group_1" data-name="Group 1" transform="translate(-388.277 -207.341)">
    <g id="Group_4" data-name="Group 4" transform="translate(388.277 305.308)">
      <path id="Path_11" data-name="Path 11" d="M415.207,391.248l-9.734,26.321h-7.746l-9.45-26.321h6.408l7.057,21.049h.162l7.057-21.049Z" transform="translate(-388.277 -391.248)" fill="#585856"/>
      <path id="Path_12" data-name="Path 12" d="M465.761,417.569H445.68V391.248h20.076v4.5H452.007v6.043h13.712v4.5H452.007v6.773h13.754Z" transform="translate(-415.101 -391.248)" fill="#585856"/>
      <path id="Path_13" data-name="Path 13" d="M516.085,417.569h-7.3l-6.895-10.342h-2.92v10.342h-6.327V391.248h11.843q5.191,0,7.584,1.257a4.457,4.457,0,0,1,2.392,4.3v4.623a4.346,4.346,0,0,1-1.723,3.691,8.814,8.814,0,0,1-4.279,1.622Zm-7.828-17.4v-1.866a2.182,2.182,0,0,0-.872-2.008,5.927,5.927,0,0,0-2.981-.548H498.97v7.3H504.4a5.535,5.535,0,0,0,3.042-.588A2.68,2.68,0,0,0,508.258,400.171Z" transform="translate(-437.047 -391.248)" fill="#585856"/>
      <path id="Path_14" data-name="Path 14" d="M567.708,399.237v10.707q0,4.462-2.758,6.043t-9.693,1.582H544.023V391.248h11.194q6.692,0,9.592,1.663T567.708,399.237Zm-6.327,10.707V399.116a2.66,2.66,0,0,0-1.541-2.636,11.387,11.387,0,0,0-4.664-.73H550.35v17.318h4.624A15.546,15.546,0,0,0,560,412.52Q561.381,411.972,561.381,409.945Z" transform="translate(-461.057 -391.248)" fill="#585856"/>
      <path id="Path_15" data-name="Path 15" d="M619.689,417.569H613.28l-2.352-6.935h-9.612L599,417.569h-6.245l9.733-26.321H610.2Zm-10.139-11.153-3.326-9.9h-.162l-3.326,9.9Z" transform="translate(-483.831 -391.248)" fill="#585856"/>
      <path id="Path_16" data-name="Path 16" d="M668.6,395.75H654.444V402.2H668.6v4.5H654.444v10.869h-6.327V391.248H668.6Z" transform="translate(-509.7 -391.248)" fill="#585856"/>
      <path id="Path_17" data-name="Path 17" d="M701.674,417.569h-6.327V391.248h6.327Z" transform="translate(-531.771 -391.248)" fill="#585856"/>
      <path id="Path_18" data-name="Path 18" d="M741.985,417.569h-6.407l-12.735-18.25v18.25h-5.638V391.248h6.408l12.735,17.967V391.248h5.637Z" transform="translate(-541.985 -391.248)" fill="#585856"/>
    </g>
    <g id="Group_5" data-name="Group 5" transform="translate(443.784 207.341)">
      <path id="Path_19" data-name="Path 19" d="M603.082,207.341H538.74a54.4,54.4,0,0,1,32.046,49.6,55,55,0,0,1-.337,6.053Z" transform="translate(-514.095 -207.341)" fill="#29cc4f"/>
      <path id="Path_20" data-name="Path 20" d="M492.476,207.363l44.446,75.8a49.638,49.638,0,0,0-40.444-75.827h-3.406C492.873,207.347,492.674,207.354,492.476,207.363Z" transform="translate(-492.476 -207.341)" fill="#1185f7"/>
    </g>
  </g>
</svg>
