<svg xmlns="http://www.w3.org/2000/svg" width="290.403" height="180.469" viewBox="0 0 290.403 180.469">
  <g id="Group_72" data-name="Group 72" transform="translate(-388.277 -207.341)">
    <g id="Group_4" data-name="Group 4" transform="translate(388.277 349.591)">
      <path id="Path_11" data-name="Path 11" d="M427.379,391.248l-14.134,38.219H402l-13.721-38.219h9.3l10.246,30.564h.236l10.246-30.564Z" transform="translate(-388.277 -391.248)" fill="#fff"/>
      <path id="Path_12" data-name="Path 12" d="M474.837,429.467H445.68V391.248h29.15v6.537H454.867v8.774h19.91V413.1h-19.91v9.834h19.971Z" transform="translate(-401.279 -391.248)" fill="#fff"/>
      <path id="Path_13" data-name="Path 13" d="M526.681,429.467h-10.6L506.07,414.45h-4.24v15.016h-9.187V391.248h17.2q7.537,0,11.012,1.825t3.474,6.243v6.713a6.31,6.31,0,0,1-2.5,5.359,12.8,12.8,0,0,1-6.213,2.355ZM515.315,404.2V401.5a3.169,3.169,0,0,0-1.266-2.915,8.607,8.607,0,0,0-4.328-.8H501.83v10.6h7.891q3.238,0,4.417-.854T515.315,404.2Z" transform="translate(-411.917 -391.248)" fill="#fff"/>
      <path id="Path_14" data-name="Path 14" d="M578.414,402.849V418.4q0,6.479-4,8.774t-14.074,2.3H544.023V391.248h16.253q9.717,0,13.927,2.415T578.414,402.849ZM569.227,418.4V402.672a3.862,3.862,0,0,0-2.238-3.827,16.534,16.534,0,0,0-6.772-1.06H553.21V422.93h6.714q5.3,0,7.3-.794T569.227,418.4Z" transform="translate(-423.555 -391.248)" fill="#fff"/>
      <path id="Path_15" data-name="Path 15" d="M631.861,429.467h-9.305L619.14,419.4H605.184l-3.357,10.07h-9.068l14.133-38.219h11.189Zm-14.723-16.194L612.31,398.9h-.236l-4.829,14.369Z" transform="translate(-434.595 -391.248)" fill="#fff"/>
      <path id="Path_16" data-name="Path 16" d="M677.855,397.785H657.3v9.364h20.552v6.536H657.3v15.782h-9.187V391.248h29.738Z" transform="translate(-447.134 -391.248)" fill="#fff"/>
      <path id="Path_17" data-name="Path 17" d="M704.534,429.467h-9.187V391.248h9.187Z" transform="translate(-457.832 -391.248)" fill="#fff"/>
      <path id="Path_18" data-name="Path 18" d="M753.186,429.467h-9.3l-18.492-26.5v26.5h-8.186V391.248h9.305L745,417.336V391.248h8.185Z" transform="translate(-462.783 -391.248)" fill="#fff"/>
    </g>
    <g id="Group_5" data-name="Group 5" transform="translate(468.874 207.341)">
      <path id="Path_19" data-name="Path 19" d="M632.165,207.341H538.74a78.992,78.992,0,0,1,46.531,72.026,79.841,79.841,0,0,1-.49,8.788Z" transform="translate(-502.955 -207.341)" fill="#fff"/>
      <path id="Path_20" data-name="Path 20" d="M492.476,207.373l64.536,110.07a72.075,72.075,0,0,0-58.726-110.1h-4.945C493.053,207.35,492.764,207.36,492.476,207.373Z" transform="translate(-492.476 -207.341)" fill="#fff"/>
    </g>
  </g>
</svg>
